<svg width="40" height="40" viewBox="0 0 40 40" fill="none" xmlns="http://www.w3.org/2000/svg">
<path fill-rule="evenodd" clip-rule="evenodd" d="M37.7925 40C39.0116 40 40 39.0114 40 37.7924V2.20761C40 0.988104 39.0114 0 37.7925 0H2.20763C0.988111 0 0 0.988254 0 2.20761V37.7922C0 39.0114 0.988111 39.9998 2.20763 39.9998H37.7925V40ZM27.5994 40V24.5099H32.7988L33.5772 18.473H27.5992V14.6188C27.5992 12.871 28.0845 11.6799 30.591 11.6799L33.7876 11.6785V6.27917C33.2347 6.20574 31.3371 6.04133 29.1296 6.04133C24.5205 6.04133 21.3651 8.85457 21.3651 14.0211V18.473H16.1524V24.5099H21.3651V39.9998H27.5994V40Z" fill="white"/>
</svg>
