<svg width="17" height="17" viewBox="0 0 17 17" fill="none" xmlns="http://www.w3.org/2000/svg">
<path d="M8.5 17C13.1944 17 17 13.1944 17 8.5C17 3.80558 13.1944 0 8.5 0C3.80558 0 0 3.80558 0 8.5C0 13.1944 3.80558 17 8.5 17Z" fill="#76C2AF"/>
<path opacity="0.2" d="M8.5 3.71875C6.00313 3.71875 3.98438 5.71094 3.98438 8.18125C3.98438 12.0859 8.5 14.875 8.5 14.875C8.5 14.875 13.0156 12.1656 13.0156 8.18125C13.0156 5.71094 10.9969 3.71875 8.5 3.71875ZM8.5 10.0938C7.33125 10.0938 6.375 9.1375 6.375 7.96875C6.375 6.8 7.33125 5.84375 8.5 5.84375C9.66875 5.84375 10.625 6.8 10.625 7.96875C10.625 9.1375 9.66875 10.0938 8.5 10.0938Z" fill="#231F20"/>
<path d="M8.5 3.1875C6.00313 3.1875 3.98438 5.17969 3.98438 7.65C3.98438 11.5547 8.5 14.3438 8.5 14.3438C8.5 14.3438 13.0156 11.6344 13.0156 7.65C13.0156 5.17969 10.9969 3.1875 8.5 3.1875ZM8.5 9.5625C7.33125 9.5625 6.375 8.60625 6.375 7.4375C6.375 6.26875 7.33125 5.3125 8.5 5.3125C9.66875 5.3125 10.625 6.26875 10.625 7.4375C10.625 8.60625 9.66875 9.5625 8.5 9.5625Z" fill="white"/>
</svg>
