<svg width="46" height="46" viewBox="0 0 46 46" fill="none" xmlns="http://www.w3.org/2000/svg">
<path d="M23 46C35.7025 46 46 35.7025 46 23C46 10.2975 35.7025 0 23 0C10.2975 0 0 10.2975 0 23C0 35.7025 10.2975 46 23 46Z" fill="#68E05E"/>
<path opacity="0.2" d="M25.875 16.5312V10.0625H13.6562C12.4344 10.0625 11.5 10.9969 11.5 12.2188V36.6562C11.5 37.8781 12.4344 38.8125 13.6562 38.8125H32.3438C33.5656 38.8125 34.5 37.8781 34.5 36.6562V18.6875H28.0312C26.8094 18.6875 25.875 17.7531 25.875 16.5312Z" fill="#231F20"/>
<path d="M25.875 15.0938V8.625H13.6562C12.4344 8.625 11.5 9.55937 11.5 10.7812V35.2188C11.5 36.4406 12.4344 37.375 13.6562 37.375H32.3438C33.5656 37.375 34.5 36.4406 34.5 35.2188V17.25H28.0312C26.8094 17.25 25.875 16.3156 25.875 15.0938Z" fill="white"/>
<path opacity="0.2" d="M26.5938 16.7469L34.5 23.7188V17.25L26.5938 16.7469Z" fill="#231F20"/>
<path d="M25.875 8.625V15.0938C25.875 16.3156 26.8094 17.25 28.0312 17.25H34.5L25.875 8.625Z" fill="white"/>
<path opacity="0.2" d="M15.8125 15.8125H22.7125V17.25H15.8125V15.8125Z" fill="#231F20"/>
<path opacity="0.2" d="M15.8125 23H30.1875V24.4375H15.8125V23Z" fill="#231F20"/>
<path opacity="0.2" d="M15.8125 19.4062H30.1875V20.8438H15.8125V19.4062Z" fill="#231F20"/>
<path opacity="0.2" d="M15.8125 26.5938H30.1875V28.0312H15.8125V26.5938Z" fill="#231F20"/>
<path opacity="0.2" d="M15.8125 30.1875H30.1875V31.625H15.8125V30.1875Z" fill="#231F20"/>
</svg>
