<svg width="46" height="46" viewBox="0 0 46 46" fill="none" xmlns="http://www.w3.org/2000/svg">
<path d="M41.8292 3.63962C41.8292 3.63962 39.7183 5.72474 36.7563 6.10007C36.7563 6.10007 32.092 -0.280495 25.4189 5.26604C22.4228 7.8516 22.1505 13.3148 22.6611 15.2748C22.6611 15.2748 13.6049 16.1505 5.70611 4.80734C5.70611 4.80734 2.16532 12.3139 8.02122 18.3191C8.02122 18.3191 6.29042 18.6527 4.64517 16.9847C4.64517 16.9847 3.86753 24.7414 10.9492 26.91C10.9492 26.91 10.4726 27.9109 7.61267 26.91C7.61267 26.91 8.08929 33.2488 14.8304 34.1663C14.8304 34.1663 11.1887 38.7536 3 38.1698C3 38.1698 16.5328 50.5974 31.1727 35.5843C39.3438 27.0769 39.0714 14.8162 38.9352 12.9813C38.9352 12.9813 42.1621 9.97865 43 8.06028C43 8.06028 40.5014 9.06115 38.4586 9.06115C38.4586 9.06095 41.1823 7.30942 41.8292 3.63962V3.63962Z" stroke="white" stroke-width="4.06613" stroke-miterlimit="10" stroke-linecap="round" stroke-linejoin="round"/>
</svg>
